<svg width="16" height="15" viewBox="0 0 16 15" fill="none" xmlns="http://www.w3.org/2000/svg">
<g id="Group">
<path id="Vector" d="M1 5.63336H15" stroke="#182531" stroke-linecap="round" stroke-linejoin="round"/>
<path id="Vector_2" d="M13.6 2.83337H2.4C2.0287 2.83337 1.6726 2.98087 1.41005 3.24342C1.1475 3.50598 1 3.86207 1 4.23337V12.6334C1 13.0047 1.1475 13.3608 1.41005 13.6233C1.6726 13.8859 2.0287 14.0334 2.4 14.0334H13.6C13.9713 14.0334 14.3274 13.8859 14.5899 13.6233C14.8525 13.3608 15 13.0047 15 12.6334V4.23337C15 3.86207 14.8525 3.50598 14.5899 3.24342C14.3274 2.98087 13.9713 2.83337 13.6 2.83337Z" stroke="#182531" stroke-linecap="round" stroke-linejoin="round"/>
<path id="Vector_3" d="M4.73242 0.966675V2.83334" stroke="#182531" stroke-linecap="round" stroke-linejoin="round"/>
<path id="Vector_4" d="M11.2676 0.966675V2.83334" stroke="#182531" stroke-linecap="round" stroke-linejoin="round"/>
</g>
</svg>
